<?xml version="1.0" encoding="UTF-8" standalone="no"?>
<svg
   xmlns:dc="http://purl.org/dc/elements/1.1/"
   xmlns:cc="http://creativecommons.org/ns#"
   xmlns:rdf="http://www.w3.org/1999/02/22-rdf-syntax-ns#"
   xmlns:svg="http://www.w3.org/2000/svg"
   xmlns="http://www.w3.org/2000/svg"
   xmlns:sodipodi="http://sodipodi.sourceforge.net/DTD/sodipodi-0.dtd"
   xmlns:inkscape="http://www.inkscape.org/namespaces/inkscape"
   width="890.27502"
   height="643.97498"
   viewBox="0 0 890.27502 643.97498"
   version="1.1"
   xml:space="preserve"
   style="clip-rule:evenodd;fill-rule:evenodd;stroke-linejoin:round;stroke-miterlimit:2"
   id="svg53"
   sodipodi:docname="logo.svg"
   inkscape:version="0.92.3 (2405546, 2018-03-11)"><metadata
     id="metadata59"><rdf:RDF><cc:Work
         rdf:about=""><dc:format>image/svg+xml</dc:format><dc:type
           rdf:resource="http://purl.org/dc/dcmitype/StillImage" /></cc:Work></rdf:RDF></metadata><defs
     id="defs57" /><sodipodi:namedview
     pagecolor="#ffffff"
     bordercolor="#666666"
     borderopacity="1"
     objecttolerance="10"
     gridtolerance="10"
     guidetolerance="10"
     inkscape:pageopacity="0"
     inkscape:pageshadow="2"
     inkscape:window-width="640"
     inkscape:window-height="480"
     id="namedview55"
     showgrid="false"
     inkscape:zoom="0.25188917"
     inkscape:cx="378.47"
     inkscape:cy="322.363"
     inkscape:window-x="0"
     inkscape:window-y="0"
     inkscape:window-maximized="0"
     inkscape:current-layer="svg53" /><g
     id="Just_PANTONE"
     transform="translate(-147.555,-99.388)"><path
       d="M 1017.64,259.366 H 913.812 L 934,155.543 h 103.83 z"
       style="fill:#ee3123;fill-rule:nonzero"
       id="path2"
       inkscape:connector-curvature="0" /><path
       d="m 1014.42,195.797 h -22.59 l 4.946,-25.453 h -23.975 l -4.947,25.453 h -24.072 l -4.679,24.053 h 24.073 l -5.219,26.836 h 23.985 l 5.214,-26.836 h 22.594 z"
       style="fill:#ffffff;fill-rule:nonzero"
       id="path4"
       inkscape:connector-curvature="0" /><path
       d="m 319.155,521.834 c -1.178,4.243 -2.423,8.385 -3.753,12.422 72.939,31.715 164.41,50.597 263.731,50.597 83.291,0 161.068,-13.282 227.025,-36.268 -57.659,13.442 -121.912,21.354 -189.735,22.197 C 503.09,572.19 399.198,553.635 319.155,521.834 M 158.962,358.944 C 157.468,238.834 359.865,138.928 611.02,135.81 723.674,134.411 826.998,152.733 906.845,184.191 827.686,132.28 710.238,99.388 579.133,99.388 c -238.357,0 -431.578,108.667 -431.578,242.735 0,58.303 36.56,111.795 97.483,153.666 l 2.147,-10.223 C 192.259,450.371 159.554,406.654 158.962,358.944"
       style="fill:#ffffff;fill-rule:nonzero"
       id="path6"
       inkscape:connector-curvature="0" /><path
       d="m 376.831,214.301 h -62.656 l -61.542,305.986 c -6.564,31.545 -29.08,74.548 -65.536,76.592 l 6.554,18.023 c 42.123,-0.246 69.773,-14.679 88.11,-40.025 13.181,-17.883 22.153,-41.339 28.787,-69.553 z"
       style="fill:#ffffff;fill-rule:nonzero"
       id="path8"
       inkscape:connector-curvature="0" /><path
       d="m 537.89,481.358 h -53.654 l 4.912,-21.313 c -20.882,13.924 -45.458,25.401 -70.853,25.401 -44.23,0 -43.825,-45.477 -37.273,-77.004 l 24.174,-116.313 55.701,-9.02 -24.99,119.182 c -3.686,17.199 -7.784,50.383 18.426,50.383 13.933,0 28.263,-6.966 38.915,-15.557 l 30.305,-144.988 55.7,-9.02 z"
       style="fill:#ffffff;fill-rule:nonzero"
       id="path10"
       inkscape:connector-curvature="0" /><path
       d="m 697.594,305.229 c -16.786,-0.413 -38.091,10.231 -38.091,29.491 0,24.568 75.769,29.894 75.769,77.398 -0.405,50.382 -52.823,73.74 -96.248,73.74 -18.827,0 -35.616,-4.501 -53.233,-10.653 l -1.633,-22.531 c 15.969,8.185 34.396,12.283 52.006,12.283 19.663,0 46.285,-11.056 46.285,-33.99 0.403,-33.176 -75.775,-34.406 -75.775,-78.636 0,-45.049 50.373,-67.581 89.69,-67.581 13.109,0 31.537,4.089 43.004,10.651 l 1.228,22.524 c -13.108,-6.966 -27.848,-12.696 -43.002,-12.696"
       style="fill:#ffffff;fill-rule:nonzero"
       id="path12"
       inkscape:connector-curvature="0" /><path
       d="M 902.371,306.054 H 855.26 l -23.743,112.628 c -4.916,22.516 -6.976,38.09 23.34,38.09 7.782,0 15.565,-0.817 23.34,-2.063 l -10.23,22.543 c -19.657,4.106 -39.319,8.194 -59.798,8.194 -35.634,0 -39.733,-21.305 -33.59,-49.979 l 27.033,-129.413 h -24.567 l 3.679,-17.619 h 24.171 l 9.827,-45.46 55.295,-9.02 -11.064,54.48 h 46.689 z"
       style="fill:#ffffff;fill-rule:nonzero"
       id="path14"
       inkscape:connector-curvature="0" /><path
       d="m 212.988,703.081 c -9.979,0 -17.814,5.755 -17.814,17.325 0,11.571 7.835,17.324 17.814,17.324 9.979,0 17.814,-5.753 17.814,-17.324 0,-11.57 -7.835,-17.325 -17.814,-17.325 m 0,-5.632 c 17.57,0 24.304,11.754 24.304,22.957 0,11.202 -6.734,22.956 -24.304,22.956 -17.569,0 -24.304,-11.754 -24.304,-22.956 0,-11.203 6.735,-22.957 24.304,-22.957"
       style="fill:#ffffff;fill-rule:nonzero"
       id="path16"
       inkscape:connector-curvature="0" /><path
       d="m 272.252,718.08 c 6.367,0 7.897,-3.856 7.897,-6.917 0,-4.163 -2.51,-6.979 -7.713,-6.979 h -18.305 v 13.896 z m -24.61,-19.528 h 27.059 c 8.754,0 11.937,6.06 11.937,11.632 0,5.326 -2.571,9.244 -7.346,10.774 v 0.122 c 3.857,0.551 6.122,4.163 6.367,9.306 0.367,8.141 0.612,10.162 2.081,11.875 h -6.856 c -1.041,-1.224 -1.041,-3.06 -1.347,-8.325 -0.429,-7.835 -3.061,-10.223 -8.448,-10.223 h -16.958 v 18.548 h -6.489 z"
       style="fill:#ffffff;fill-rule:nonzero"
       id="path18"
       inkscape:connector-curvature="0" /><rect
       x="297.478"
       y="698.55103"
       width="6.4889998"
       height="43.709999"
       style="fill:#ffffff"
       id="rect20" /><path
       d="m 340.944,718.692 h 20.08 v 23.569 h -4.653 l -1.102,-6.244 c -2.877,3.367 -7.53,7.346 -16.773,7.346 -17.509,0 -23.08,-12.61 -23.08,-22.222 0,-16.896 11.57,-23.691 22.896,-23.691 8.999,0 19.222,2.815 21.977,14.876 h -6.856 c -2.02,-6.061 -6.551,-9.244 -14.815,-9.244 -11.57,0 -16.713,8.203 -16.713,17.508 0,12.366 7.897,17.141 17.019,17.141 9.489,0 15.672,-5.632 16.345,-13.406 h -14.325 z"
       style="fill:#ffffff;fill-rule:nonzero"
       id="path22"
       inkscape:connector-curvature="0" /><rect
       x="373.88501"
       y="698.55103"
       width="6.4889998"
       height="43.709999"
       style="fill:#ffffff"
       id="rect24" /><path
       d="m 400.272,707.489 h -0.123 v 34.772 h -6.489 v -43.71 h 7.53 l 28.1,34.773 h 0.122 v -34.773 h 6.489 v 43.71 h -7.53 z"
       style="fill:#ffffff;fill-rule:nonzero"
       id="path26"
       inkscape:connector-curvature="0" /><path
       d="m 466.882,704.551 -8.204,19.345 h 16.591 z m 10.774,24.977 H 456.23 l -5.571,12.733 h -6.979 l 19.774,-43.71 h 7.407 l 19.773,43.71 h -7.407 z"
       style="fill:#ffffff;fill-rule:nonzero"
       id="path28"
       inkscape:connector-curvature="0" /><path
       d="m 498.413,698.551 h 6.489 v 38.078 h 26.569 v 5.632 h -33.058 z"
       style="fill:#ffffff;fill-rule:nonzero"
       id="path30"
       inkscape:connector-curvature="0" /><rect
       x="562.57501"
       y="722.05902"
       width="21.488001"
       height="6.3670001"
       style="fill:#ffffff"
       id="rect32" /><path
       d="m 622.083,727.874 c 0.122,7.836 7.469,9.856 14.08,9.856 6.918,0 11.816,-2.631 11.816,-7.407 0,-3.979 -3.123,-5.632 -8.143,-6.489 l -9.917,-1.652 c -5.204,-0.858 -12.979,-2.94 -12.979,-11.449 0,-7.958 6.306,-13.284 17.509,-13.284 8.754,0 17.998,3.184 18.611,13.713 h -6.49 c -0.55,-3.429 -2.509,-8.081 -12.978,-8.081 -4.776,0 -10.162,2.021 -10.162,7.162 0,2.694 1.775,4.837 7.162,5.755 l 10.714,1.837 c 3.427,0.612 13.162,2.265 13.162,11.202 0,11.143 -9.98,14.325 -18.794,14.325 -9.857,0 -20.08,-3.427 -20.08,-15.488 z"
       style="fill:#ffffff;fill-rule:nonzero"
       id="path34"
       inkscape:connector-curvature="0" /><rect
       x="663.776"
       y="698.55103"
       width="6.4889998"
       height="43.709999"
       style="fill:#ffffff"
       id="rect36" /><path
       d="m 690.163,707.489 h -0.122 v 34.772 h -6.489 v -43.71 h 7.529 l 28.1,34.773 h 0.122 v -34.773 h 6.489 v 43.71 h -7.53 z"
       style="fill:#ffffff;fill-rule:nonzero"
       id="path38"
       inkscape:connector-curvature="0" /><path
       d="m 774.465,714.285 c -0.979,-6.061 -5.754,-11.203 -14.937,-11.203 -10.345,0 -16.896,5.938 -16.896,17.876 0,8.265 4.469,16.773 16.529,16.773 7.653,0 13.468,-3.673 15.304,-12.182 h 6.489 c -1.04,9.673 -9.366,17.813 -21.854,17.813 -11.02,0 -22.957,-6.059 -22.957,-23.078 0,-12.733 7.959,-22.834 22.895,-22.834 8.755,0 20.815,3.734 21.916,16.835 z"
       style="fill:#ffffff;fill-rule:nonzero"
       id="path40"
       inkscape:connector-curvature="0" /><path
       d="m 791.487,698.551 h 35.14 v 5.632 h -28.651 v 12.673 h 27.793 v 5.632 h -27.793 v 14.141 h 29.262 v 5.632 h -35.751 z"
       style="fill:#ffffff;fill-rule:nonzero"
       id="path42"
       inkscape:connector-curvature="0" /><path
       d="m 868.629,711.346 h -12.795 v -4.775 h 1.47 c 10.896,0 12.488,-5.143 12.733,-8.02 h 5.081 v 43.71 h -6.489 z"
       style="fill:#ffffff;fill-rule:nonzero"
       id="path44"
       inkscape:connector-curvature="0" /><path
       d="m 906.341,703.939 c -7.407,0 -10.714,4.346 -10.714,9.55 0,5.203 3.307,9.55 10.714,9.55 7.469,0 10.774,-4.347 10.774,-9.55 0,-5.204 -3.305,-9.55 -10.774,-9.55 m -9.611,28.282 c 0.673,3.918 4.346,5.877 8.508,5.877 7.04,0 12.183,-2.877 12.917,-15.549 h -0.122 c -1.653,2.816 -6.305,5.632 -12.488,5.632 -7.407,0 -16.406,-3.429 -16.406,-14.57 0,-6.428 4.652,-14.815 16.957,-14.815 12.978,0 18.182,7.958 18.182,21.366 0,22.283 -13.468,23.079 -19.345,23.079 -5.143,0 -13.162,-2.143 -14.325,-11.02 z"
       style="fill:#ffffff;fill-rule:nonzero"
       id="path46"
       inkscape:connector-curvature="0" /><path
       d="m 946.32,717.162 c 0.796,0.062 1.714,0.062 4.102,0.062 5.509,0 8.326,-2.388 8.326,-6.245 0,-5.387 -4.714,-7.04 -9.306,-7.04 -6.489,0 -9.489,3.244 -9.795,8.938 h -6.122 c 0.49,-9.734 6.98,-14.08 16.101,-14.08 10.958,0 15.61,5.693 15.61,11.692 0,3.918 -1.959,7.652 -6.366,8.754 v 0.123 c 4.836,0.858 8.264,4.775 8.264,10.224 0,7.345 -5.081,13.65 -16.651,13.65 -4.041,0 -18.059,0 -18.059,-14.446 h 6.122 c 0.367,7.223 4.897,9.305 11.386,9.305 6.857,0 10.713,-3.245 10.713,-8.081 0,-4.959 -4.408,-7.652 -10.713,-7.652 -2.204,0 -3,0.122 -3.612,0.122 z"
       style="fill:#ffffff;fill-rule:nonzero"
       id="path48"
       inkscape:connector-curvature="0" /><path
       d="m 995.055,703.939 c -10.469,0 -11.203,11.998 -11.203,17.079 0,5.082 0.734,17.08 11.203,17.08 10.465,0 11.205,-11.998 11.205,-17.08 0,-5.081 -0.74,-17.079 -11.205,-17.079 m 0,-5.143 c 13.465,0 17.695,10.04 17.695,22.222 0,12.183 -4.23,22.223 -17.695,22.223 -13.469,0 -17.692,-10.04 -17.692,-22.223 0,-12.182 4.223,-22.222 17.692,-22.222"
       style="fill:#ffffff;fill-rule:nonzero"
       id="path50"
       inkscape:connector-curvature="0" /></g></svg>